<svg width="24" height="24" viewBox="0 0 24 24" fill="none" xmlns="http://www.w3.org/2000/svg">
<path d="M10.8273 5.46499L10.3923 3.14099M10.8273 5.46499C12.1986 5.26248 13.595 5.60141 14.721 6.41009C15.8469 7.21877 16.6141 8.43375 16.8603 9.79799C17.4083 12.729 16.9712 10.394 17.1912 11.567C17.6302 13.912 19.5743 14.155 19.7903 15.328C19.9003 15.914 20.0103 16.499 19.4813 16.599L6.78125 18.976C6.25225 19.075 6.14225 18.488 6.03225 17.902C5.81325 16.73 7.53825 15.8 7.09925 13.455C6.88025 12.286 7.31725 14.617 6.76825 11.686C6.50454 10.325 6.78067 8.91474 7.53822 7.75369C8.29577 6.59264 9.4753 5.77185 10.8273 5.46499ZM3.78125 9.87499C3.92368 7.99798 4.60319 6.41385 5.86725 5.01899M8.51325 18.652C8.7741 19.3952 9.27989 20.0276 9.94759 20.4454C10.6153 20.8632 11.4052 21.0416 12.1877 20.9512C12.9701 20.8609 13.6986 20.5072 14.2535 19.9481C14.8083 19.3891 15.1567 18.6581 15.2413 17.875L15.3302 17.375L8.51325 18.652Z" stroke="#111928" stroke-width="2" stroke-linecap="round" stroke-linejoin="round"/>
</svg>
