<svg width="191" height="191" viewBox="0 0 191 191" fill="none" xmlns="http://www.w3.org/2000/svg">
<style>
  .favicon {
    fill: oklch(0.32 0.04 237.44);;
  }
  @media (prefers-color-scheme: dark) {
    .favicon {
      fill: oklch(0.91 0.01 71.32);
    }
  }
</style>
<path class="favicon" fill-rule="evenodd" clip-rule="evenodd" d="M144.268 35C160.768 35 184 43.5 184 81C184 118.5 148.5 156.5 96 156.5C43.5 156.5 8 118.5 8 81C8 43.5 31.2324 35 47.7324 35C64.309 35.0001 81.6291 39.1467 96 47.3994C110.371 39.1467 127.691 35.0001 144.268 35ZM96.2559 86C84.9146 86.0002 81.5 102.702 81.5 115.041C81.5002 127.38 90.5241 129 97.1094 129C103.695 129 111.5 126.507 111.5 115.041C111.5 102.827 107.597 86 96.2559 86ZM64.1777 90C61.4165 90.0004 59.1777 93.582 59.1777 98C59.1777 102.418 61.4165 106 64.1777 106C66.9392 106 69.1777 102.418 69.1777 98C69.1777 93.5817 66.9392 90 64.1777 90ZM127.856 90C125.095 90 122.856 93.5817 122.856 98C122.856 102.418 125.095 106 127.856 106C130.618 106 132.856 102.418 132.856 98C132.856 93.5818 130.618 90.0001 127.856 90Z" fill="white"/>
</svg>
