<svg width="1477" height="318" viewBox="0 0 1477 318" fill="none" xmlns="http://www.w3.org/2000/svg">
<g filter="url(#filter0_d_454_1344)">
<path d="M351.68 4C393.778 4.00001 453.054 25.6873 453.054 121.366C453.054 217.045 362.478 314 228.527 314H228.526C94.576 314 4 217.045 4 121.366C4.00002 25.6872 63.2753 4 105.374 4C147.668 4.00001 191.859 14.581 228.526 35.6377C265.193 14.5808 309.385 4 351.68 4Z" fill="#E7E0D8"/>
<path d="M4 121.366C4 25.6872 63.2752 4 105.374 4C149.42 4 195.524 15.4731 233.044 38.3054C307.702 40.8351 354.823 129.949 354.823 194.082C354.823 240.008 315.376 314 228.527 314C94.5761 314 4 217.045 4 121.366Z" fill="url(#paint0_linear_454_1344)" fill-opacity="0.5"/>
<path d="M453.054 121.366C453.054 25.6872 393.779 4 351.68 4C307.634 4 261.529 15.4731 224.01 38.3054C149.352 40.8351 102.231 129.949 102.231 194.082C102.231 240.008 141.678 314 228.527 314C362.478 314 453.054 217.045 453.054 121.366Z" fill="url(#paint1_linear_454_1344)" fill-opacity="0.5"/>
<ellipse cx="147.336" cy="164.741" rx="12.7572" ry="20.4115" fill="#213745"/>
<ellipse cx="309.807" cy="164.741" rx="12.7572" ry="20.4115" fill="#213745"/>
<path d="M268.074 208.219C268.074 177.054 258.118 134.124 229.181 134.124C200.243 134.124 191.531 176.736 191.531 208.219C191.531 239.701 214.556 243.835 231.359 243.835C248.161 243.835 268.074 237.475 268.074 208.219Z" fill="#213745"/>
</g>
<path d="M660.036 289.174L583.463 202.985V289.174H551.053V25.6211H583.463V180.547L658.611 94.0023H703.843L611.955 191.232L704.199 289.174H660.036Z" fill="#213745"/>
<path d="M819.467 292.379C801.185 292.379 784.564 288.224 769.606 279.914C754.885 271.604 743.25 259.85 734.703 244.655C726.393 229.221 722.237 211.414 722.237 191.232C722.237 171.287 726.511 153.717 735.059 138.521C743.844 123.088 755.716 111.335 770.674 103.262C785.633 94.952 802.372 90.7969 820.892 90.7969C839.411 90.7969 856.151 94.952 871.109 103.262C886.067 111.335 897.82 122.969 906.368 138.165C915.153 153.361 919.546 171.05 919.546 191.232C919.546 211.414 915.034 229.221 906.012 244.655C897.227 259.85 885.236 271.604 870.041 279.914C854.845 288.224 837.987 292.379 819.467 292.379ZM819.467 263.887C831.101 263.887 842.023 261.156 852.233 255.695C862.443 250.234 870.634 242.043 876.807 231.121C883.218 220.199 886.424 206.903 886.424 191.232C886.424 175.561 883.337 162.265 877.164 151.343C870.99 140.421 862.918 132.348 852.945 127.124C842.973 121.663 832.17 118.933 820.535 118.933C808.664 118.933 797.742 121.663 787.769 127.124C778.035 132.348 770.199 140.421 764.263 151.343C758.328 162.265 755.36 175.561 755.36 191.232C755.36 207.14 758.209 220.555 763.907 231.477C769.843 242.399 777.678 250.591 787.413 256.052C797.148 261.275 807.833 263.887 819.467 263.887Z" fill="#213745"/>
<path d="M950.05 190.876C950.05 170.931 954.086 153.48 962.159 138.521C970.232 123.325 981.272 111.572 995.281 103.262C1009.53 94.952 1025.32 90.7969 1042.65 90.7969C1059.74 90.7969 1074.58 94.4772 1087.17 101.838C1099.75 109.198 1109.13 118.458 1115.3 129.618V94.0023H1148.07V289.174H1115.3V252.846C1108.89 264.243 1099.28 273.74 1086.46 281.338C1073.87 288.699 1059.15 292.379 1042.29 292.379C1024.96 292.379 1009.29 288.105 995.281 279.558C981.272 271.01 970.232 259.019 962.159 243.586C954.086 228.153 950.05 210.583 950.05 190.876ZM1115.3 191.232C1115.3 176.511 1112.34 163.689 1106.4 152.767C1100.46 141.845 1092.39 133.535 1082.18 127.837C1072.21 121.901 1061.17 118.933 1049.06 118.933C1036.95 118.933 1025.91 121.782 1015.94 127.481C1005.97 133.179 998.011 141.489 992.076 152.411C986.14 163.333 983.172 176.155 983.172 190.876C983.172 205.834 986.14 218.893 992.076 230.052C998.011 240.974 1005.97 249.403 1015.94 255.339C1025.91 261.038 1036.95 263.887 1049.06 263.887C1061.17 263.887 1072.21 261.038 1082.18 255.339C1092.39 249.403 1100.46 240.974 1106.4 230.052C1112.34 218.893 1115.3 205.953 1115.3 191.232Z" fill="#213745"/>
<path d="M1235.25 25.6211V289.174H1202.84V25.6211H1235.25Z" fill="#213745"/>
<path d="M1278.38 190.876C1278.38 170.931 1282.41 153.48 1290.49 138.521C1298.56 123.325 1309.6 111.572 1323.61 103.262C1337.85 94.952 1353.64 90.7969 1370.98 90.7969C1388.07 90.7969 1402.91 94.4772 1415.5 101.838C1428.08 109.198 1437.46 118.458 1443.63 129.618V94.0023H1476.4V289.174H1443.63V252.846C1437.22 264.243 1427.61 273.74 1414.78 281.338C1402.2 288.699 1387.48 292.379 1370.62 292.379C1353.29 292.379 1337.62 288.105 1323.61 279.558C1309.6 271.01 1298.56 259.019 1290.49 243.586C1282.41 228.153 1278.38 210.583 1278.38 190.876ZM1443.63 191.232C1443.63 176.511 1440.66 163.689 1434.73 152.767C1428.79 141.845 1420.72 133.535 1410.51 127.837C1400.54 121.901 1389.5 118.933 1377.39 118.933C1365.28 118.933 1354.24 121.782 1344.27 127.481C1334.29 133.179 1326.34 141.489 1320.4 152.411C1314.47 163.333 1311.5 176.155 1311.5 190.876C1311.5 205.834 1314.47 218.893 1320.4 230.052C1326.34 240.974 1334.29 249.403 1344.27 255.339C1354.24 261.038 1365.28 263.887 1377.39 263.887C1389.5 263.887 1400.54 261.038 1410.51 255.339C1420.72 249.403 1428.79 240.974 1434.73 230.052C1440.66 218.893 1443.63 205.953 1443.63 191.232Z" fill="#213745"/>
<defs>
<filter id="filter0_d_454_1344" x="0" y="0" width="457.054" height="318" filterUnits="userSpaceOnUse" color-interpolation-filters="sRGB">
<feFlood flood-opacity="0" result="BackgroundImageFix"/>
<feColorMatrix in="SourceAlpha" type="matrix" values="0 0 0 0 0 0 0 0 0 0 0 0 0 0 0 0 0 0 127 0" result="hardAlpha"/>
<feOffset/>
<feGaussianBlur stdDeviation="2"/>
<feComposite in2="hardAlpha" operator="out"/>
<feColorMatrix type="matrix" values="0 0 0 0 0.129412 0 0 0 0 0.215686 0 0 0 0 0.270588 0 0 0 1 0"/>
<feBlend mode="normal" in2="BackgroundImageFix" result="effect1_dropShadow_454_1344"/>
<feBlend mode="normal" in="SourceGraphic" in2="effect1_dropShadow_454_1344" result="shape"/>
</filter>
<linearGradient id="paint0_linear_454_1344" x1="168.568" y1="-44.4774" x2="168.568" y2="314" gradientUnits="userSpaceOnUse">
<stop stop-color="#B8B3AC"/>
<stop offset="1" stop-color="#5C5956"/>
</linearGradient>
<linearGradient id="paint1_linear_454_1344" x1="288.486" y1="-44.4774" x2="288.486" y2="314" gradientUnits="userSpaceOnUse">
<stop stop-color="#B8B3AC"/>
<stop offset="1" stop-color="#5C5956"/>
</linearGradient>
</defs>
</svg>
