<svg width="1514" height="426" viewBox="0 0 1514 426" fill="none" xmlns="http://www.w3.org/2000/svg">
<path d="M338.153 62.2466C379.099 62.2466 436.75 83.3395 436.75 176.397C436.75 269.091 349.342 363.017 219.899 363.75L218.375 363.753C88.0944 363.753 0 269.455 0 176.397C0.000148183 83.3396 57.6514 62.2466 98.5967 62.2466C139.732 62.2466 182.713 72.5374 218.375 93.0171C254.037 72.5373 297.018 62.2466 338.153 62.2466Z" fill="#E7E0D8"/>
<path d="M0 176.397C0 83.3397 57.6512 62.2466 98.5966 62.2466C141.436 62.2466 186.277 73.4054 222.769 95.6122C295.381 98.0725 341.211 184.745 341.211 247.121C341.211 291.789 302.845 363.753 218.375 363.753C88.0946 363.753 0 269.455 0 176.397Z" fill="url(#paint0_linear_651_43)" fill-opacity="0.5"/>
<path d="M436.75 176.397C436.75 83.3397 379.099 62.2466 338.154 62.2466C295.315 62.2466 250.473 73.4054 213.982 95.6122C141.369 98.0725 95.539 184.745 95.539 247.121C95.539 291.789 133.905 363.753 218.375 363.753C348.656 363.753 436.75 269.455 436.75 176.397Z" fill="url(#paint1_linear_651_43)" fill-opacity="0.5"/>
<ellipse cx="139.412" cy="218.582" rx="12.4077" ry="19.8523" fill="#213745"/>
<ellipse cx="297.431" cy="218.582" rx="12.4077" ry="19.8523" fill="#213745"/>
<path d="M256.841 260.87C256.841 230.559 247.157 188.805 219.012 188.805C190.868 188.805 182.395 230.25 182.395 260.87C182.395 291.49 204.789 295.511 221.131 295.511C237.473 295.511 256.841 289.325 256.841 260.87Z" fill="#213745"/>
<path d="M607.523 238.742L695.507 334H642.162L571.498 251.904V334H532.009V77.668H571.498V226.618L640.777 143.137H695.507L607.523 238.742ZM806.6 337.118C788.587 337.118 772.307 333.076 757.758 324.994C743.209 316.68 731.778 305.134 723.465 290.354C715.151 275.344 710.995 258.024 710.995 238.395C710.995 218.997 715.267 201.793 723.811 186.782C732.356 171.772 744.018 160.225 758.797 152.143C773.577 144.06 790.088 140.019 808.332 140.019C826.575 140.019 843.087 144.06 857.866 152.143C872.646 160.225 884.307 171.772 892.852 186.782C901.396 201.793 905.668 218.997 905.668 238.395C905.668 257.793 901.281 274.997 892.505 290.008C883.73 305.018 871.722 316.68 856.48 324.994C841.47 333.076 824.843 337.118 806.6 337.118ZM806.6 302.824C816.761 302.824 826.229 300.4 835.004 295.55C844.01 290.701 851.285 283.426 856.827 273.727C862.369 264.028 865.14 252.251 865.14 238.395C865.14 224.539 862.485 212.877 857.173 203.409C851.862 193.71 844.818 186.436 836.043 181.586C827.268 176.737 817.8 174.312 807.639 174.312C797.478 174.312 788.01 176.737 779.234 181.586C770.69 186.436 763.878 193.71 758.797 203.409C753.717 212.877 751.177 224.539 751.177 238.395C751.177 258.948 756.372 274.882 766.764 286.198C777.387 297.282 790.665 302.824 806.6 302.824ZM931.542 237.702C931.542 218.535 935.468 201.562 943.32 186.782C951.402 172.003 962.256 160.572 975.881 152.489C989.737 144.176 1004.98 140.019 1021.61 140.019C1036.62 140.019 1049.66 143.021 1060.75 149.025C1072.06 154.799 1081.07 162.073 1087.77 170.848V143.137H1127.6V334H1087.77V305.596C1081.07 314.602 1071.95 322.107 1060.4 328.111C1048.85 334.115 1035.69 337.118 1020.91 337.118C1004.52 337.118 989.506 332.961 975.881 324.647C962.256 316.103 951.402 304.326 943.32 289.315C935.468 274.074 931.542 256.869 931.542 237.702ZM1087.77 238.395C1087.77 225.232 1085 213.801 1079.45 204.102C1074.14 194.403 1067.1 187.013 1058.32 181.933C1049.55 176.852 1040.08 174.312 1029.92 174.312C1019.76 174.312 1010.29 176.852 1001.51 181.933C992.739 186.782 985.58 194.057 980.038 203.756C974.726 213.224 972.071 224.539 972.071 237.702C972.071 250.865 974.726 262.412 980.038 272.342C985.58 282.272 992.739 289.892 1001.51 295.204C1010.52 300.284 1019.99 302.824 1029.92 302.824C1040.08 302.824 1049.55 300.284 1058.32 295.204C1067.1 290.123 1074.14 282.734 1079.45 273.035C1085 263.105 1087.77 251.558 1087.77 238.395ZM1218.96 77.668V334H1179.47V77.668H1218.96ZM1257.64 237.702C1257.64 218.535 1261.57 201.562 1269.42 186.782C1277.5 172.003 1288.35 160.572 1301.98 152.489C1315.83 144.176 1331.08 140.019 1347.7 140.019C1362.71 140.019 1375.76 143.021 1386.85 149.025C1398.16 154.799 1407.17 162.073 1413.86 170.848V143.137H1453.7V334H1413.86V305.596C1407.17 314.602 1398.05 322.107 1386.5 328.111C1374.95 334.115 1361.79 337.118 1347.01 337.118C1330.61 337.118 1315.6 332.961 1301.98 324.647C1288.35 316.103 1277.5 304.326 1269.42 289.315C1261.57 274.074 1257.64 256.869 1257.64 237.702ZM1413.86 238.395C1413.86 225.232 1411.09 213.801 1405.55 204.102C1400.24 194.403 1393.2 187.013 1384.42 181.933C1375.65 176.852 1366.18 174.312 1356.02 174.312C1345.86 174.312 1336.39 176.852 1327.61 181.933C1318.84 186.782 1311.68 194.057 1306.14 203.756C1300.82 213.224 1298.17 224.539 1298.17 237.702C1298.17 250.865 1300.82 262.412 1306.14 272.342C1311.68 282.272 1318.84 289.892 1327.61 295.204C1336.62 300.284 1346.09 302.824 1356.02 302.824C1366.18 302.824 1375.65 300.284 1384.42 295.204C1393.2 290.123 1400.24 282.734 1405.55 273.035C1411.09 263.105 1413.86 251.558 1413.86 238.395Z" fill="#E4E2DF"/>
<defs>
<linearGradient id="paint0_linear_651_43" x1="160.059" y1="15.0974" x2="160.059" y2="363.753" gradientUnits="userSpaceOnUse">
<stop stop-color="#B8B3AC"/>
<stop offset="1" stop-color="#5C5956"/>
</linearGradient>
<linearGradient id="paint1_linear_651_43" x1="276.691" y1="15.0974" x2="276.691" y2="363.753" gradientUnits="userSpaceOnUse">
<stop stop-color="#B8B3AC"/>
<stop offset="1" stop-color="#5C5956"/>
</linearGradient>
</defs>
</svg>
